<svg xmlns="http://www.w3.org/2000/svg" version="1.1" xmlns:xlink="http://www.w3.org/1999/xlink" xmlns:svgjs="http://svgjs.dev/svgjs" width="1440" height="560" preserveAspectRatio="none" viewBox="0 0 1440 560">
    <g mask="url(&quot;#SvgjsMask1000&quot;)" fill="none">
        <rect width="1440" height="560" x="0" y="0" fill="rgba(51, 6, 7, 1)"></rect>
        <path d="M0,473.823C95.128,470.309,196.492,481.818,276.341,429.994C356.072,378.246,405.839,288.006,428.523,195.7C449.205,111.542,397.155,29.717,396.004,-56.937C394.607,-162.039,485.551,-281.851,421.074,-364.863C357.655,-446.513,222.95,-395.566,120.767,-411.295C34.733,-424.538,-48.487,-474.096,-132.137,-450.017C-215.921,-425.9,-262.375,-342.053,-326.184,-282.64C-398.889,-214.944,-527.225,-175.817,-533.128,-76.652C-539.162,24.715,-395.125,68.814,-352.592,161.023C-310.324,252.658,-365.271,383.938,-289.781,450.908C-215.8,516.54,-98.831,477.474,0,473.823" fill="#290506"></path>
        <path d="M1440 956.296C1532.368 962.8399999999999 1629.603 1025.839 1710.989 981.668 1792.133 937.6279999999999 1818.502 831.636 1836.526 741.087 1852.18 662.443 1820.934 586.13 1805.3809999999999 507.466 1790.74 433.411 1788.97 356.527 1747.964 293.148 1703.2730000000001 224.07299999999998 1640.953 166.23000000000002 1564.669 135.41699999999997 1483.994 102.83100000000002 1390.441 83.779 1309.662 116.10899999999998 1230.656 147.72899999999998 1204.386 243.524 1144.21 303.696 1077.69 370.212 968.441 398.828 937.934 487.81399999999996 906.613 579.174 938.1179999999999 683.366 985.1220000000001 767.736 1030.304 848.8340000000001 1106.853 909.393 1192.612 944.943 1270.446 977.207 1355.955 950.342 1440 956.296" fill="#3d0708"></path>
    </g>
    <defs>
        <mask id="SvgjsMask1000">
            <rect width="1440" height="560" fill="#ffffff"></rect>
        </mask>
    </defs>
</svg>