<svg xmlns="http://www.w3.org/2000/svg" version="1.1" xmlns:xlink="http://www.w3.org/1999/xlink" xmlns:svgjs="http://svgjs.dev/svgjs" width="1920" height="1080" preserveAspectRatio="none" viewBox="0 0 1920 1080">
    <g mask="url(&quot;#SvgjsMask1024&quot;)" fill="none">
        <rect width="1920" height="1080" x="0" y="0" fill="rgba(14, 1, 2, 1)"></rect>
        <path d="M0,597.866C110.468,587.66,203.656,522,295.141,459.249C384.113,398.222,474.467,335.191,523.254,238.962C573.125,140.596,584.722,27.349,569.488,-81.88C554.212,-191.41,502.974,-289.919,437.102,-378.751C367,-473.286,295.717,-595.684,178.759,-608.798C60.195,-622.092,-14.818,-473.875,-129.878,-442.325C-248.412,-409.823,-402.892,-511.191,-490.732,-425.222C-576.484,-341.297,-491.09,-191.825,-507.304,-72.939C-523.348,44.702,-618.91,153.403,-585.173,267.239C-550.805,383.206,-437.708,457.727,-332.401,517.226C-231.084,574.471,-115.878,608.572,0,597.866" fill="#0b0102"></path>
        <path d="M1920 1628.6190000000001C2033.788 1636.812 2165.919 1672.245 2254.081 1599.8400000000001 2342.816 1526.964 2310.372 1384.079 2349.295 1276.052 2383.936 1179.908 2482.4539999999997 1102.357 2469.867 1000.941 2457.263 899.384 2348.166 844.184 2285.641 763.1700000000001 2218.368 676.0029999999999 2191.986 543.837 2088.36 506.61699999999996 1984.724 469.394 1878.68 548.419 1772.895 579.005 1666.596 609.74 1549.299 613.779 1465.963 686.575 1377.262 764.058 1313.21 873.8679999999999 1301.213 991.032 1289.4 1106.397 1344.894 1215.569 1401.4299999999998 1316.823 1454.402 1411.694 1522.348 1497.867 1615.47 1553.857 1706.901 1608.8310000000001 1813.59 1620.9569999999999 1920 1628.6190000000001" fill="#110102"></path>
    </g>
    <defs>
        <mask id="SvgjsMask1024">
            <rect width="1920" height="1080" fill="#ffffff"></rect>
        </mask>
    </defs>
</svg>