<svg width="6844" height="370" viewBox="0 0 6844 370" fill="none" xmlns="http://www.w3.org/2000/svg">
<path d="M6598.7 365V0H6661.2V198H6704.7L6771.7 90H6841.7L6758.7 223L6843.2 365H6771.7L6704.7 251H6661.2V365H6598.7Z" fill="white"/>
<path d="M6598.7 365V0H6661.2V198H6704.7L6771.7 90H6841.7L6758.7 223L6843.2 365H6771.7L6704.7 251H6661.2V365H6598.7Z" fill="#F13024"/>
<path d="M6410.4 370C6387.07 370 6366.57 365.667 6348.9 357C6331.57 348 6318.07 335.5 6308.4 319.5C6298.73 303.167 6293.9 284 6293.9 262V193C6293.9 170.667 6298.73 151.5 6308.4 135.5C6318.07 119.5 6331.57 107.167 6348.9 98.5C6366.57 89.5 6387.07 85 6410.4 85C6445.07 85 6472.73 94 6493.4 112C6514.07 129.667 6524.9 153.833 6525.9 184.5H6463.4C6462.4 170.167 6457.23 159.167 6447.9 151.5C6438.9 143.5 6426.4 139.5 6410.4 139.5C6393.73 139.5 6380.57 144.167 6370.9 153.5C6361.23 162.5 6356.4 175.5 6356.4 192.5V262C6356.4 279 6361.23 292.167 6370.9 301.5C6380.57 310.833 6393.73 315.5 6410.4 315.5C6426.4 315.5 6438.9 311.667 6447.9 304C6457.23 296 6462.4 284.833 6463.4 270.5H6525.9C6524.9 301.167 6514.07 325.5 6493.4 343.5C6472.73 361.167 6445.07 370 6410.4 370Z" fill="white"/>
<path d="M6410.4 370C6387.07 370 6366.57 365.667 6348.9 357C6331.57 348 6318.07 335.5 6308.4 319.5C6298.73 303.167 6293.9 284 6293.9 262V193C6293.9 170.667 6298.73 151.5 6308.4 135.5C6318.07 119.5 6331.57 107.167 6348.9 98.5C6366.57 89.5 6387.07 85 6410.4 85C6445.07 85 6472.73 94 6493.4 112C6514.07 129.667 6524.9 153.833 6525.9 184.5H6463.4C6462.4 170.167 6457.23 159.167 6447.9 151.5C6438.9 143.5 6426.4 139.5 6410.4 139.5C6393.73 139.5 6380.57 144.167 6370.9 153.5C6361.23 162.5 6356.4 175.5 6356.4 192.5V262C6356.4 279 6361.23 292.167 6370.9 301.5C6380.57 310.833 6393.73 315.5 6410.4 315.5C6426.4 315.5 6438.9 311.667 6447.9 304C6457.23 296 6462.4 284.833 6463.4 270.5H6525.9C6524.9 301.167 6514.07 325.5 6493.4 343.5C6472.73 361.167 6445.07 370 6410.4 370Z" fill="#F13024"/>
<path d="M6078.59 370C6050.26 370 6027.93 362.5 6011.59 347.5C5995.26 332.5 5987.09 312.333 5987.09 287C5987.09 260 5996.09 239.167 6014.09 224.5C6032.09 209.833 6057.59 202.5 6090.59 202.5H6159.09V179C6159.09 165.667 6154.76 155.333 6146.09 148C6137.43 140.333 6125.59 136.5 6110.59 136.5C6096.93 136.5 6085.59 139.5 6076.59 145.5C6067.59 151.5 6062.26 159.667 6060.59 170H5999.59C6002.59 144 6014.26 123.333 6034.59 108C6054.93 92.6667 6080.93 85 6112.59 85C6146.26 85 6172.76 93.5 6192.09 110.5C6211.76 127.167 6221.59 149.833 6221.59 178.5V365H6161.09V317H6151.09L6161.09 303.5C6161.09 323.833 6153.59 340 6138.59 352C6123.59 364 6103.59 370 6078.59 370ZM6099.09 323C6116.76 323 6131.09 318.5 6142.09 309.5C6153.43 300.5 6159.09 288.833 6159.09 274.5V241H6091.59C6078.93 241 6068.76 244.667 6061.09 252C6053.43 259.333 6049.59 269 6049.59 281C6049.59 294 6053.93 304.333 6062.59 312C6071.59 319.333 6083.76 323 6099.09 323Z" fill="white"/>
<path d="M6078.59 370C6050.26 370 6027.93 362.5 6011.59 347.5C5995.26 332.5 5987.09 312.333 5987.09 287C5987.09 260 5996.09 239.167 6014.09 224.5C6032.09 209.833 6057.59 202.5 6090.59 202.5H6159.09V179C6159.09 165.667 6154.76 155.333 6146.09 148C6137.43 140.333 6125.59 136.5 6110.59 136.5C6096.93 136.5 6085.59 139.5 6076.59 145.5C6067.59 151.5 6062.26 159.667 6060.59 170H5999.59C6002.59 144 6014.26 123.333 6034.59 108C6054.93 92.6667 6080.93 85 6112.59 85C6146.26 85 6172.76 93.5 6192.09 110.5C6211.76 127.167 6221.59 149.833 6221.59 178.5V365H6161.09V317H6151.09L6161.09 303.5C6161.09 323.833 6153.59 340 6138.59 352C6123.59 364 6103.59 370 6078.59 370ZM6099.09 323C6116.76 323 6131.09 318.5 6142.09 309.5C6153.43 300.5 6159.09 288.833 6159.09 274.5V241H6091.59C6078.93 241 6068.76 244.667 6061.09 252C6053.43 259.333 6049.59 269 6049.59 281C6049.59 294 6053.93 304.333 6062.59 312C6071.59 319.333 6083.76 323 6099.09 323Z" fill="#F13024"/>
<path d="M5839.29 365C5812.96 365 5792.29 357.667 5777.29 343C5762.62 328.333 5755.29 308.167 5755.29 282.5V146.5H5680.79V90H5755.29V12.5H5818.29V90H5923.79V146.5H5818.29V282.5C5818.29 299.833 5826.79 308.5 5843.79 308.5H5918.79V365H5839.29Z" fill="white"/>
<path d="M5839.29 365C5812.96 365 5792.29 357.667 5777.29 343C5762.62 328.333 5755.29 308.167 5755.29 282.5V146.5H5680.79V90H5755.29V12.5H5818.29V90H5923.79V146.5H5818.29V282.5C5818.29 299.833 5826.79 308.5 5843.79 308.5H5918.79V365H5839.29Z" fill="#F13024"/>
<path d="M5498.98 369.5C5477.98 369.5 5459.65 366.167 5443.98 359.5C5428.32 352.833 5415.98 343.667 5406.98 332C5398.32 320 5393.65 306 5392.98 290H5455.48C5456.15 298.667 5460.32 305.667 5467.98 311C5475.98 316.333 5486.32 319 5498.98 319H5520.98C5536.32 319 5547.82 316 5555.48 310C5563.15 304 5566.98 295.833 5566.98 285.5C5566.98 275.833 5563.48 268.333 5556.48 263C5549.82 257.333 5539.32 253.667 5524.98 252L5490.98 247C5459.65 242.667 5436.65 234.333 5421.98 222C5407.32 209.667 5399.98 191.167 5399.98 166.5C5399.98 140.833 5408.65 121 5425.98 107C5443.32 92.6667 5468.82 85.5 5502.48 85.5H5521.48C5552.15 85.5 5576.65 92.3333 5594.98 106C5613.32 119.667 5623.15 138 5624.48 161H5561.98C5560.98 153.667 5556.82 147.667 5549.48 143C5542.48 138.333 5533.15 136 5521.48 136H5502.48C5488.15 136 5477.65 138.667 5470.98 144C5464.65 149 5461.48 156.5 5461.48 166.5C5461.48 175.833 5464.32 182.833 5469.98 187.5C5475.65 191.833 5484.82 195 5497.48 197L5532.98 202C5565.65 206.667 5589.65 215.5 5604.98 228.5C5620.65 241.167 5628.48 260 5628.48 285C5628.48 311.667 5619.32 332.5 5600.98 347.5C5582.98 362.167 5556.32 369.5 5520.98 369.5H5498.98Z" fill="white"/>
<path d="M5498.98 369.5C5477.98 369.5 5459.65 366.167 5443.98 359.5C5428.32 352.833 5415.98 343.667 5406.98 332C5398.32 320 5393.65 306 5392.98 290H5455.48C5456.15 298.667 5460.32 305.667 5467.98 311C5475.98 316.333 5486.32 319 5498.98 319H5520.98C5536.32 319 5547.82 316 5555.48 310C5563.15 304 5566.98 295.833 5566.98 285.5C5566.98 275.833 5563.48 268.333 5556.48 263C5549.82 257.333 5539.32 253.667 5524.98 252L5490.98 247C5459.65 242.667 5436.65 234.333 5421.98 222C5407.32 209.667 5399.98 191.167 5399.98 166.5C5399.98 140.833 5408.65 121 5425.98 107C5443.32 92.6667 5468.82 85.5 5502.48 85.5H5521.48C5552.15 85.5 5576.65 92.3333 5594.98 106C5613.32 119.667 5623.15 138 5624.48 161H5561.98C5560.98 153.667 5556.82 147.667 5549.48 143C5542.48 138.333 5533.15 136 5521.48 136H5502.48C5488.15 136 5477.65 138.667 5470.98 144C5464.65 149 5461.48 156.5 5461.48 166.5C5461.48 175.833 5464.32 182.833 5469.98 187.5C5475.65 191.833 5484.82 195 5497.48 197L5532.98 202C5565.65 206.667 5589.65 215.5 5604.98 228.5C5620.65 241.167 5628.48 260 5628.48 285C5628.48 311.667 5619.32 332.5 5600.98 347.5C5582.98 362.167 5556.32 369.5 5520.98 369.5H5498.98Z" fill="#F13024"/>
<path d="M5251.68 365C5233.68 365 5217.85 361.333 5204.18 354C5190.85 346.667 5180.35 336.333 5172.68 323C5165.01 309.333 5161.18 293.667 5161.18 276V56.5H5073.18V0H5223.68V276C5223.68 286 5226.51 294 5232.18 300C5238.18 305.667 5246.18 308.5 5256.18 308.5H5339.18V365H5251.68Z" fill="white"/>
<path d="M5251.68 365C5233.68 365 5217.85 361.333 5204.18 354C5190.85 346.667 5180.35 336.333 5172.68 323C5165.01 309.333 5161.18 293.667 5161.18 276V56.5H5073.18V0H5223.68V276C5223.68 286 5226.51 294 5232.18 300C5238.18 305.667 5246.18 308.5 5256.18 308.5H5339.18V365H5251.68Z" fill="#F13024"/>
<path d="M4951.88 365C4933.88 365 4918.04 361.333 4904.38 354C4891.04 346.667 4880.54 336.333 4872.88 323C4865.21 309.333 4861.38 293.667 4861.38 276V56.5H4773.38V0H4923.88V276C4923.88 286 4926.71 294 4932.38 300C4938.37 305.667 4946.38 308.5 4956.38 308.5H5039.38V365H4951.88Z" fill="white"/>
<path d="M4951.88 365C4933.88 365 4918.04 361.333 4904.38 354C4891.04 346.667 4880.54 336.333 4872.88 323C4865.21 309.333 4861.38 293.667 4861.38 276V56.5H4773.38V0H4923.88V276C4923.88 286 4926.71 294 4932.38 300C4938.37 305.667 4946.38 308.5 4956.38 308.5H5039.38V365H4951.88Z" fill="#F13024"/>
<path d="M4610.07 370C4575.07 370 4547.57 360.333 4527.57 341C4507.57 321.333 4497.57 294.667 4497.57 261V90H4560.07V260.5C4560.07 278.167 4564.4 291.833 4573.07 301.5C4581.74 310.833 4594.07 315.5 4610.07 315.5C4625.74 315.5 4637.9 310.833 4646.57 301.5C4655.57 291.833 4660.07 278.167 4660.07 260.5V90H4722.57V261C4722.57 294.667 4712.4 321.333 4692.07 341C4671.74 360.333 4644.4 370 4610.07 370Z" fill="white"/>
<path d="M4610.07 370C4575.07 370 4547.57 360.333 4527.57 341C4507.57 321.333 4497.57 294.667 4497.57 261V90H4560.07V260.5C4560.07 278.167 4564.4 291.833 4573.07 301.5C4581.74 310.833 4594.07 315.5 4610.07 315.5C4625.74 315.5 4637.9 310.833 4646.57 301.5C4655.57 291.833 4660.07 278.167 4660.07 260.5V90H4722.57V261C4722.57 294.667 4712.4 321.333 4692.07 341C4671.74 360.333 4644.4 370 4610.07 370Z" fill="#F13024"/>
<path d="M4200.27 365V0H4427.27V58H4261.77V155.5H4414.27V213.5H4262.77V365H4200.27Z" fill="white"/>
<path d="M4200.27 365V0H4427.27V58H4261.77V155.5H4414.27V213.5H4262.77V365H4200.27Z" fill="#F13024"/>
<path d="M3607.66 365V90H3666.66V142.5H3682.16L3663.66 174.5C3663.66 144.833 3670.32 122.5 3683.66 107.5C3696.99 92.5 3716.66 85 3742.66 85C3772.32 85 3795.66 94.1667 3812.66 112.5C3829.66 130.833 3838.16 156.167 3838.16 188.5V208.5H3772.66V193C3772.66 175.333 3767.99 161.667 3758.66 152C3749.66 142.333 3737.16 137.5 3721.16 137.5C3704.82 137.5 3692.16 142.333 3683.16 152C3674.49 161.667 3670.16 175.333 3670.16 193V365H3607.66Z" fill="white"/>
<path d="M3410.85 369.5C3387.52 369.5 3367.18 365.167 3349.85 356.5C3332.85 347.5 3319.52 335 3309.85 319C3300.52 302.667 3295.85 283.5 3295.85 261.5V193.5C3295.85 171.5 3300.52 152.5 3309.85 136.5C3319.52 120.167 3332.85 107.667 3349.85 99C3367.18 90 3387.52 85.5 3410.85 85.5C3434.52 85.5 3454.85 90 3471.85 99C3488.85 107.667 3502.02 120.167 3511.35 136.5C3521.02 152.5 3525.85 171.333 3525.85 193V261.5C3525.85 283.5 3521.02 302.667 3511.35 319C3502.02 335 3488.85 347.5 3471.85 356.5C3454.85 365.167 3434.52 369.5 3410.85 369.5ZM3410.85 315C3427.52 315 3440.35 310.5 3449.35 301.5C3458.68 292.167 3463.35 278.833 3463.35 261.5V193.5C3463.35 175.833 3458.68 162.5 3449.35 153.5C3440.35 144.5 3427.52 140 3410.85 140C3394.52 140 3381.68 144.5 3372.35 153.5C3363.02 162.5 3358.35 175.833 3358.35 193.5V261.5C3358.35 278.833 3363.02 292.167 3372.35 301.5C3381.68 310.5 3394.52 315 3410.85 315Z" fill="white"/>
<path d="M3087.55 370C3060.21 370 3038.05 360.5 3021.05 341.5C3004.38 322.5 2996.05 297 2996.05 265V190.5C2996.05 158.167 3004.38 132.5 3021.05 113.5C3037.71 94.5 3059.88 85 3087.55 85C3110.21 85 3128.21 91.5 3141.55 104.5C3154.88 117.167 3161.55 134.667 3161.55 157L3147.55 142.5H3162.05L3160.05 77V0H3222.55V365H3161.55V312.5H3147.55L3161.55 298C3161.55 320.333 3154.88 338 3141.55 351C3128.21 363.667 3110.21 370 3087.55 370ZM3109.55 316C3125.55 316 3137.88 311.333 3146.55 302C3155.55 292.333 3160.05 279 3160.05 262V193C3160.05 176 3155.55 162.833 3146.55 153.5C3137.88 143.833 3125.55 139 3109.55 139C3093.55 139 3081.05 143.667 3072.05 153C3063.05 162.333 3058.55 175.667 3058.55 193V262C3058.55 279.333 3063.05 292.667 3072.05 302C3081.05 311.333 3093.55 316 3109.55 316Z" fill="white"/>
<path d="M2811.74 370C2788.41 370 2768.08 365.5 2750.74 356.5C2733.41 347.5 2719.91 335 2710.24 319C2700.91 302.667 2696.24 283.667 2696.24 262V193C2696.24 171.333 2700.91 152.5 2710.24 136.5C2719.91 120.167 2733.41 107.5 2750.74 98.5C2768.08 89.5 2788.41 85 2811.74 85C2834.74 85 2854.74 89.5 2871.74 98.5C2889.08 107.5 2902.41 120.167 2911.74 136.5C2921.41 152.5 2926.24 171.333 2926.24 193V242.5H2756.74V262C2756.74 281.333 2761.41 296 2770.74 306C2780.08 315.667 2793.91 320.5 2812.24 320.5C2826.24 320.5 2837.58 318.167 2846.24 313.5C2854.91 308.5 2860.41 301.333 2862.74 292H2924.24C2919.58 315.667 2906.91 334.667 2886.24 349C2865.91 363 2841.08 370 2811.74 370ZM2865.74 207.5V192.5C2865.74 173.5 2861.24 159 2852.24 149C2843.24 138.667 2829.74 133.5 2811.74 133.5C2793.74 133.5 2780.08 138.667 2770.74 149C2761.41 159.333 2756.74 174 2756.74 193V203.5L2870.24 202.5L2865.74 207.5Z" fill="white"/>
<path d="M2471.44 365L2380.94 90H2444.94L2497.44 257C2500.44 267 2503.27 277.333 2505.94 288C2508.94 298.667 2511.1 307.167 2512.44 313.5C2514.1 307.167 2516.27 298.667 2518.94 288C2521.6 277.333 2524.27 267.167 2526.94 257.5L2578.44 90H2641.94L2551.94 365H2471.44Z" fill="white"/>
<path d="M2253.63 365C2235.63 365 2219.8 361.333 2206.13 354C2192.8 346.667 2182.3 336.333 2174.63 323C2166.97 309.333 2163.13 293.667 2163.13 276V56.5H2075.13V0H2225.63V276C2225.63 286 2228.47 294 2234.13 300C2240.13 305.667 2248.13 308.5 2258.13 308.5H2341.13V365H2253.63Z" fill="white"/>
<path d="M1911.83 369.5C1888.49 369.5 1868.16 365.167 1850.83 356.5C1833.83 347.5 1820.49 335 1810.83 319C1801.49 302.667 1796.83 283.5 1796.83 261.5V193.5C1796.83 171.5 1801.49 152.5 1810.83 136.5C1820.49 120.167 1833.83 107.667 1850.83 99C1868.16 90 1888.49 85.5 1911.83 85.5C1935.49 85.5 1955.83 90 1972.83 99C1989.83 107.667 2002.99 120.167 2012.33 136.5C2021.99 152.5 2026.83 171.333 2026.83 193V261.5C2026.83 283.5 2021.99 302.667 2012.33 319C2002.99 335 1989.83 347.5 1972.83 356.5C1955.83 365.167 1935.49 369.5 1911.83 369.5ZM1911.83 315C1928.49 315 1941.33 310.5 1950.33 301.5C1959.66 292.167 1964.33 278.833 1964.33 261.5V193.5C1964.33 175.833 1959.66 162.5 1950.33 153.5C1941.33 144.5 1928.49 140 1911.83 140C1895.49 140 1882.66 144.5 1873.33 153.5C1863.99 162.5 1859.33 175.833 1859.33 193.5V261.5C1859.33 278.833 1863.99 292.167 1873.33 301.5C1882.66 310.5 1895.49 315 1911.83 315Z" fill="white"/>
<path d="M1572.02 365L1481.52 90H1545.52L1598.02 257C1601.02 267 1603.86 277.333 1606.52 288C1609.52 298.667 1611.69 307.167 1613.02 313.5C1614.69 307.167 1616.86 298.667 1619.52 288C1622.19 277.333 1624.86 267.167 1627.52 257.5L1679.02 90H1742.52L1652.52 365H1572.02Z" fill="white"/>
<path d="M1200.72 365V90H1261.72V142.5H1278.72L1261.72 157C1261.72 134.333 1268.22 116.667 1281.22 104C1294.55 91.3333 1312.72 85 1335.72 85C1362.72 85 1384.22 94 1400.22 112C1416.55 130 1424.72 154.167 1424.72 184.5V365H1362.22V191C1362.22 174.333 1357.89 161.5 1349.22 152.5C1340.55 143.5 1328.39 139 1312.72 139C1297.39 139 1285.22 143.667 1276.22 153C1267.55 162.333 1263.22 175.667 1263.22 193V365H1200.72Z" fill="white"/>
<path d="M1012.91 370C989.581 370 969.247 365.5 951.914 356.5C934.581 347.5 921.081 335 911.414 319C902.081 302.667 897.414 283.667 897.414 262V193C897.414 171.333 902.081 152.5 911.414 136.5C921.081 120.167 934.581 107.5 951.914 98.5C969.247 89.5 989.581 85 1012.91 85C1035.91 85 1055.91 89.5 1072.91 98.5C1090.25 107.5 1103.58 120.167 1112.91 136.5C1122.58 152.5 1127.41 171.333 1127.41 193V242.5H957.914V262C957.914 281.333 962.581 296 971.914 306C981.247 315.667 995.081 320.5 1013.41 320.5C1027.41 320.5 1038.75 318.167 1047.41 313.5C1056.08 308.5 1061.58 301.333 1063.91 292H1125.41C1120.75 315.667 1108.08 334.667 1087.41 349C1067.08 363 1042.25 370 1012.91 370ZM1066.91 207.5V192.5C1066.91 173.5 1062.41 159 1053.41 149C1044.41 138.667 1030.91 133.5 1012.91 133.5C994.914 133.5 981.247 138.667 971.914 149C962.581 159.333 957.914 174 957.914 193V203.5L1071.41 202.5L1066.91 207.5Z" fill="white"/>
<path d="M702.109 369.5C681.109 369.5 662.776 366.167 647.109 359.5C631.443 352.833 619.109 343.667 610.109 332C601.443 320 596.776 306 596.109 290H658.609C659.276 298.667 663.443 305.667 671.109 311C679.109 316.333 689.443 319 702.109 319H724.109C739.443 319 750.943 316 758.609 310C766.276 304 770.109 295.833 770.109 285.5C770.109 275.833 766.609 268.333 759.609 263C752.943 257.333 742.443 253.667 728.109 252L694.109 247C662.776 242.667 639.776 234.333 625.109 222C610.443 209.667 603.109 191.167 603.109 166.5C603.109 140.833 611.776 121 629.109 107C646.443 92.6667 671.943 85.5 705.609 85.5H724.609C755.276 85.5 779.776 92.3333 798.109 106C816.443 119.667 826.276 138 827.609 161H765.109C764.109 153.667 759.943 147.667 752.609 143C745.609 138.333 736.276 136 724.609 136H705.609C691.276 136 680.776 138.667 674.109 144C667.776 149 664.609 156.5 664.609 166.5C664.609 175.833 667.443 182.833 673.109 187.5C678.776 191.833 687.943 195 700.609 197L736.109 202C768.776 206.667 792.776 215.5 808.109 228.5C823.776 241.167 831.609 260 831.609 285C831.609 311.667 822.443 332.5 804.109 347.5C786.109 362.167 759.443 369.5 724.109 369.5H702.109Z" fill="white"/>
<path d="M413.305 370C389.971 370 369.638 365.5 352.305 356.5C334.971 347.5 321.471 335 311.805 319C302.471 302.667 297.805 283.667 297.805 262V193C297.805 171.333 302.471 152.5 311.805 136.5C321.471 120.167 334.971 107.5 352.305 98.5C369.638 89.5 389.971 85 413.305 85C436.305 85 456.305 89.5 473.305 98.5C490.638 107.5 503.971 120.167 513.305 136.5C522.971 152.5 527.805 171.333 527.805 193V242.5H358.305V262C358.305 281.333 362.971 296 372.305 306C381.638 315.667 395.471 320.5 413.805 320.5C427.805 320.5 439.138 318.167 447.805 313.5C456.471 308.5 461.971 301.333 464.305 292H525.805C521.138 315.667 508.471 334.667 487.805 349C467.471 363 442.638 370 413.305 370ZM467.305 207.5V192.5C467.305 173.5 462.805 159 453.805 149C444.805 138.667 431.305 133.5 413.305 133.5C395.305 133.5 381.638 138.667 372.305 149C362.971 159.333 358.305 174 358.305 193V203.5L471.805 202.5L467.305 207.5Z" fill="white"/>
<path d="M0.5 365V0H109C133.667 0 155 4.66667 173 14C191.333 23.3333 205.5 36.5 215.5 53.5C225.5 70.5 230.5 90.6667 230.5 114V250.5C230.5 273.5 225.5 293.667 215.5 311C205.5 328 191.333 341.333 173 351C155 360.333 133.667 365 109 365H0.5ZM63 307.5H109C127 307.5 141.333 302.5 152 292.5C162.667 282.167 168 268.167 168 250.5V114C168 96.6667 162.667 83 152 73C141.333 62.6667 127 57.5 109 57.5H63V307.5Z" fill="white"/>
</svg>
