<svg width="6863" height="384" viewBox="0 0 6863 384" fill="none" xmlns="http://www.w3.org/2000/svg">
<path d="M6668.2 7H6605.7V372H6668.2V258H6711.7L6778.7 372H6850.2L6765.7 230L6848.7 97H6778.7L6711.7 205H6668.2V7ZM6675.2 198H6707.81L6774.81 90H6861.32L6773.9 230.086L6862.51 379H6774.7L6707.7 265H6675.2V379H6598.7V0H6675.2V198Z" fill="white"/>
<path d="M6363.4 269V199.5C6363.4 182.766 6368.08 169.907 6377.45 160.925L6377.9 160.5C6387.57 151.167 6400.73 146.5 6417.4 146.5L6418.89 146.512C6434.18 146.754 6446.18 150.75 6454.9 158.5C6463.94 165.927 6469.07 176.482 6470.29 190.166L6470.4 191.5H6532.9C6531.91 161.313 6521.4 137.424 6501.36 119.833L6500.4 119C6480.05 101.281 6452.93 92.2837 6419.02 92.0068L6417.4 92C6394.07 92 6373.57 96.5 6355.9 105.5L6354.29 106.323C6337.73 114.941 6324.76 127 6315.4 142.5L6314.95 143.252C6305.58 159.099 6300.9 178.015 6300.9 200V269L6300.91 271.054C6301.21 292.195 6306.03 310.677 6315.4 326.5C6325.07 342.5 6338.57 355 6355.9 364C6373.01 372.396 6392.79 376.725 6415.22 376.987L6417.4 377C6451.52 377 6478.87 368.44 6499.42 351.321L6500.4 350.5C6521.07 332.5 6531.9 308.167 6532.9 277.5H6470.4C6469.4 291.833 6464.23 303 6454.9 311L6454.47 311.356C6445.51 318.785 6433.15 322.5 6417.4 322.5V315.5C6432.32 315.5 6443.01 311.929 6450.36 305.671C6458.02 299.097 6462.52 289.809 6463.42 277.013L6463.87 270.5H6540.13L6539.89 277.729C6538.84 310.082 6527.31 336.342 6505 355.778L6504.95 355.821C6482.7 374.842 6453.26 384 6417.4 384C6393.19 384 6371.6 379.501 6352.82 370.284L6352.74 370.249L6352.67 370.213C6334.25 360.647 6319.77 347.273 6309.41 330.12L6309.37 330.065C6298.97 312.491 6293.9 292.052 6293.9 269V200C6293.9 176.641 6298.96 156.168 6309.41 138.88L6309.9 138.078C6320.24 121.292 6334.58 108.331 6352.77 99.2393C6371.57 89.6724 6393.18 85 6417.4 85C6453.27 85 6482.7 94.3283 6504.95 113.679H6504.95C6527.31 132.795 6538.84 158.919 6539.89 191.271L6540.13 198.5H6463.87L6463.42 191.987C6462.52 179.18 6458.02 170.124 6450.46 163.909L6450.35 163.822L6450.25 163.731C6442.9 157.201 6432.26 153.5 6417.4 153.5C6402.09 153.5 6390.83 157.749 6382.76 165.536L6382.71 165.58L6382.67 165.623C6374.8 172.944 6370.4 183.853 6370.4 199.5V269C6370.4 284.634 6374.8 295.779 6382.76 303.464L6383.53 304.184C6391.53 311.512 6402.57 315.5 6417.4 315.5V322.5L6415.85 322.486C6400.17 322.208 6387.67 317.691 6378.35 308.934L6377.9 308.5C6368.53 299.458 6363.71 286.819 6363.41 270.582L6363.4 269Z" fill="white"/>
<path d="M6228.59 185.5C6228.59 156.833 6218.76 134.167 6199.09 117.5C6180.06 100.766 6154.09 92.2674 6121.17 92.0059L6119.59 92C6087.93 92 6061.93 99.6667 6041.59 115L6040.65 115.723C6020.9 130.98 6009.55 151.406 6006.59 177H6067.59L6067.76 176.037C6069.54 166.477 6074.54 158.82 6082.76 153.068L6083.59 152.5C6092.59 146.5 6103.93 143.5 6117.59 143.5L6118.99 143.511C6133.33 143.743 6144.7 147.573 6153.09 155C6161.76 162.333 6166.09 172.667 6166.09 186V209.5H6097.59V202.5H6159.09V186C6159.09 174.328 6155.39 166.11 6148.57 160.344L6148.51 160.294L6148.46 160.243C6141.41 154.011 6131.4 150.5 6117.59 150.5C6105.34 150.5 6095.68 153.1 6088.19 157.857L6087.48 158.324C6080.04 163.285 6075.85 169.775 6074.5 178.114L6073.56 184H5998.74L5999.64 176.197C6002.85 148.354 6015.47 125.933 6037.38 109.411L6038.41 108.646C6060.06 92.7122 6087.3 85 6119.59 85C6154.42 85 6182.74 93.8059 6203.7 112.227C6225.07 130.376 6235.59 155.072 6235.59 185.5V379H6161.09V353.352C6158.12 357.111 6154.67 360.608 6150.75 363.834L6149.97 364.466C6133.39 377.724 6111.7 384 6085.59 384C6056.47 384 6032.57 376.387 6014.71 360.422L6013.86 359.655C5995.87 343.135 5987.09 320.986 5987.09 294C5987.09 265.279 5996.76 242.294 6016.67 226.073L6017.6 225.328C6037.21 209.803 6064.18 202.5 6097.59 202.5V209.5L6096.05 209.505C6063.8 209.73 6038.81 217.062 6021.09 231.5L6020.26 232.192C6002.81 246.82 5994.09 267.422 5994.09 294L5994.1 295.184C5994.35 319.962 6002.52 339.734 6018.59 354.5C6034.67 369.266 6056.56 376.764 6084.27 376.994L6085.59 377C6110.2 377 6129.97 371.186 6144.89 359.558L6145.59 359C6157.11 349.789 6164.2 338.122 6166.88 324H6168.09V372H6228.59V185.5ZM6159.09 281.5V255H6098.59C6087.36 255 6079.05 258.207 6072.93 264.059C6066.83 269.893 6063.59 277.636 6063.59 288C6063.59 299.211 6067.22 307.503 6074.12 313.658C6081.52 319.634 6091.92 323 6106.09 323V330L6104.67 329.989C6090.48 329.774 6079.07 326.337 6070.45 319.677L6069.59 319C6061.2 311.573 6056.87 301.643 6056.61 289.211L6056.59 288C6056.59 276.375 6060.19 266.94 6067.39 259.694L6068.09 259C6075.52 251.896 6085.29 248.233 6097.41 248.011L6098.59 248H6166.09V281.5L6166.09 282.17C6165.92 296.197 6160.25 307.641 6149.09 316.5L6148.58 316.919C6137.65 325.64 6123.48 330 6106.09 330V323C6122.55 323 6135.19 318.829 6144.66 311.082L6144.7 311.05L6144.74 311.019C6154.42 303.331 6159.09 293.674 6159.09 281.5Z" fill="white"/>
<path d="M5825.29 289.5V153.5H5930.79V97H5825.29V19.5H5762.29V97H5687.79V153.5H5762.29V289.5L5762.29 290.699C5762.52 315.796 5769.85 335.563 5784.29 350C5799.05 364.437 5819.31 371.769 5845.06 371.994L5846.29 372H5925.79V315.5H5850.79V308.5H5932.79V379H5846.29C5818.62 379 5796.02 371.257 5779.4 355.005L5779.34 354.95C5763.06 338.674 5755.29 316.556 5755.29 289.5V160.5H5680.79V90H5755.29V12.5H5832.29V90H5937.79V160.5H5832.29V289.5C5832.29 297.121 5834.16 301.545 5836.66 304.099C5839.14 306.627 5843.4 308.5 5850.79 308.5V315.5L5850 315.493C5833.79 315.231 5825.55 306.835 5825.29 290.306L5825.29 289.5Z" fill="white"/>
<path d="M5468.97 290L5469.46 296.463C5469.95 302.839 5472.87 307.983 5478.92 312.21C5485.45 316.546 5494.3 319 5505.98 319V326L5504.8 325.992C5493.07 325.836 5483.38 323.336 5475.74 318.492L5474.98 318C5467.32 312.667 5463.15 305.667 5462.48 297H5399.98C5400.65 313 5405.32 327 5413.98 339C5422.98 350.667 5435.32 359.833 5450.98 366.5C5466.16 372.958 5483.84 376.288 5504.02 376.49L5505.98 376.5H5527.98L5529.63 376.495C5563.6 376.273 5589.43 369.168 5607.13 355.182L5607.98 354.5C5626.03 339.734 5635.2 319.316 5635.48 293.246L5635.48 292C5635.48 267 5627.65 248.167 5611.98 235.5C5596.65 222.5 5572.65 213.667 5539.98 209L5504.48 204C5491.82 202 5482.65 198.833 5476.98 194.5C5471.49 189.979 5468.66 183.269 5468.49 174.368L5468.48 173.5C5468.48 163.812 5471.46 156.471 5477.4 151.476L5477.98 151C5484.44 145.833 5494.5 143.169 5508.15 143.008L5509.48 143H5528.48C5540.15 143 5549.48 145.333 5556.48 150C5563.59 154.521 5567.72 160.293 5568.88 167.316L5568.98 168H5631.48C5630.17 145.359 5620.62 127.24 5602.84 113.644L5601.98 113C5583.94 99.5468 5559.91 92.715 5529.92 92.5049L5528.48 92.5V85.5C5560.15 85.5 5586.27 92.557 5606.17 107.388L5607.1 108.091C5626.51 122.935 5637.04 142.939 5638.47 167.595L5638.9 175H5562.87L5562.05 168.945C5561.38 164.016 5558.66 159.68 5552.73 155.905L5552.66 155.865L5552.6 155.824C5547.12 152.168 5539.29 150 5528.48 150H5509.48C5495.75 150 5487.19 152.603 5482.36 156.466L5482.34 156.48L5482.32 156.494C5478.07 159.852 5475.48 165.077 5475.48 173.5C5475.48 181.288 5477.76 186.021 5481.34 189.016C5485.62 192.244 5493.35 195.148 5505.51 197.075L5540.96 202.068L5540.97 202.07L5542.53 202.296C5574.91 207.09 5599.85 216.101 5616.39 230.057L5617.21 230.732C5634.35 245.028 5642.48 265.86 5642.48 292C5642.48 320.468 5632.59 343.411 5612.42 359.918L5612.41 359.927C5592.65 376.023 5564.13 383.5 5527.98 383.5H5505.98C5484.93 383.5 5466.16 380.264 5449.82 373.597L5448.24 372.941C5431.65 365.879 5418.28 356.031 5408.44 343.275L5408.37 343.188L5408.31 343.099C5398.77 329.895 5393.71 314.545 5392.99 297.291L5392.69 290H5468.97ZM5527.98 319V326H5505.98V319H5527.98ZM5566.98 292.5C5566.98 284.77 5564.32 279.434 5559.24 275.568L5559.09 275.455L5558.95 275.334C5553.82 270.974 5544.94 267.554 5531.18 265.953L5531.07 265.94L5530.97 265.926L5496.97 260.926V260.925C5465.62 256.583 5441.38 248.187 5425.24 234.99L5424.48 234.357C5407.8 220.332 5399.98 199.595 5399.98 173.5C5399.98 146.079 5409.35 124.095 5428.59 108.555C5447.66 92.8123 5475.01 85.5 5509.48 85.5V92.5L5507.91 92.5049C5475.02 92.7254 5450.05 99.8906 5432.98 114L5432.18 114.66C5415.38 128.621 5406.98 148.234 5406.98 173.5L5406.99 174.651C5407.22 198.743 5414.55 216.859 5428.98 229C5443.65 241.333 5466.65 249.667 5497.98 254L5531.98 259C5546.32 260.667 5556.82 264.333 5563.48 270C5570.48 275.333 5573.98 282.833 5573.98 292.5L5573.97 293.462C5573.74 303.341 5569.91 311.187 5562.48 317L5561.75 317.554C5554.1 323.185 5542.84 326 5527.98 326V319C5542.6 319 5552.27 316.108 5558.17 311.487C5564.02 306.906 5566.98 300.834 5566.98 292.5ZM5528.48 85.5V92.5H5509.48V85.5H5528.48Z" fill="white"/>
<path d="M5230.68 283V7H5080.18V63.5H5168.18V283L5168.19 284.65C5168.42 301.644 5172.25 316.76 5179.68 330C5187.35 343.333 5197.85 353.667 5211.18 361C5224.42 368.104 5239.69 371.767 5257 371.989L5258.68 372H5346.18V315.5H5263.18V308.5H5353.18V379H5258.68C5239.71 379 5222.71 375.129 5207.87 367.168L5207.84 367.151L5207.81 367.134C5193.34 359.176 5181.91 347.922 5173.61 333.489L5173.57 333.425C5165.25 318.584 5161.18 301.711 5161.18 283V70.5H5073.18V0H5237.68V283C5237.68 291.518 5240.03 297.621 5244.13 302.046C5248.56 306.151 5254.66 308.5 5263.18 308.5V315.5L5262.25 315.491C5252.68 315.32 5244.99 312.49 5239.18 307C5233.69 301.188 5230.86 293.498 5230.69 283.932L5230.68 283Z" fill="white"/>
<path d="M4930.88 283V7H4780.38V63.5H4868.38V283L4868.39 284.65C4868.62 301.644 4872.45 316.76 4879.88 330C4887.54 343.333 4898.04 353.667 4911.38 361C4924.61 368.104 4939.89 371.767 4957.19 371.989L4958.88 372H5046.38V315.5H4963.38V308.5H5053.38V379H4958.88C4939.91 379 4922.9 375.129 4908.07 367.168L4908.03 367.151L4908 367.134C4893.53 359.176 4882.11 347.922 4873.81 333.489L4873.77 333.425C4865.44 318.584 4861.38 301.711 4861.38 283V70.5H4773.38V0H4937.88V283C4937.88 291.518 4940.22 297.621 4944.33 302.046C4948.75 306.151 4954.86 308.5 4963.38 308.5V315.5L4962.44 315.491C4952.88 315.32 4945.19 312.49 4939.38 307C4933.89 301.188 4931.06 293.498 4930.88 283.932L4930.88 283Z" fill="white"/>
<path d="M4567.07 267.5V97H4504.57V268L4504.58 269.573C4504.89 302.498 4514.88 328.641 4534.57 348C4554.26 367.031 4581.21 376.696 4615.44 376.993L4617.07 377C4650.87 377 4677.88 367.633 4698.11 348.899L4699.07 348C4719.09 328.641 4729.25 302.498 4729.56 269.573L4729.57 268V97H4667.07V267.5L4667.06 269.145C4666.79 286.017 4662.29 299.135 4653.57 308.5C4644.9 317.833 4632.74 322.5 4617.07 322.5V315.5C4631.27 315.5 4641.39 311.326 4648.44 303.737L4648.45 303.73L4649.13 302.971C4656.14 295.007 4660.07 283.491 4660.07 267.5V90H4736.57V268C4736.57 303.175 4725.89 331.798 4703.94 353.031L4703.92 353.053L4703.89 353.073C4681.98 373.908 4652.78 384 4617.07 384C4580.75 384 4551.33 373.933 4529.71 353.033L4529.68 353.012L4529.66 352.991C4508.06 331.75 4497.57 303.14 4497.57 268V90H4574.07V267.5C4574.07 284.038 4578.11 295.801 4585.24 303.781C4592.26 311.312 4602.51 315.5 4617.07 315.5V322.5L4615.58 322.486C4600.3 322.204 4588.47 317.542 4580.07 308.5C4571.67 299.135 4567.35 286.017 4567.08 269.145L4567.07 267.5Z" fill="white"/>
<path d="M4421.27 220.5V162.5H4268.77V65H4434.27V7H4207.27V372H4269.77V220.5H4421.27ZM4441.27 72H4275.77V155.5H4428.27V227.5H4276.77V379H4200.27V0H4441.27V72Z" fill="white"/>
<path d="M3845.16 195.5C3845.16 163.672 3836.92 138.626 3820.45 120.364L3819.66 119.5C3802.92 101.453 3780.05 92.2888 3751.04 92.0068L3749.66 92C3723.66 92 3703.99 99.5 3690.66 114.5L3690.04 115.208C3682.35 124.125 3676.95 135.556 3673.84 149.5H3673.66V97H3614.66V372H3677.16V200C3677.16 182.333 3681.49 168.667 3690.16 159C3699.16 149.333 3711.82 144.5 3728.16 144.5L3729.65 144.514C3744.93 144.806 3756.94 149.636 3765.66 159C3774.99 168.667 3779.66 182.333 3779.66 200V215.5H3845.16V195.5ZM3680.66 115.854C3682.14 113.757 3683.73 111.754 3685.42 109.85L3686.13 109.063C3701.14 92.6958 3722.71 85 3749.66 85C3780.88 85 3806.22 94.7124 3824.79 114.74L3825.65 115.682C3843.58 135.565 3852.16 162.46 3852.16 195.5V222.5H3772.66V200C3772.66 183.558 3768.34 171.854 3760.62 163.862L3760.58 163.816L3760.53 163.77C3753.13 155.82 3742.66 151.5 3728.16 151.5C3713.31 151.5 3702.7 155.83 3695.33 163.716C3688.2 171.696 3684.16 183.46 3684.16 200V379H3607.66V90H3680.66V115.854Z" fill="white"/>
<path d="M3532.85 200C3532.85 178.333 3528.02 159.5 3518.35 143.5C3509.02 127.167 3495.85 114.667 3478.85 106C3462.38 97.2812 3442.79 92.7852 3420.06 92.5127L3417.85 92.5C3394.52 92.5 3374.18 97 3356.85 106C3339.85 114.667 3326.52 127.167 3316.85 143.5L3316.42 144.252C3307.37 160.094 3302.85 178.844 3302.85 200.5V268.5L3302.87 270.554C3303.15 291.695 3307.81 310.177 3316.85 326C3326.52 342 3339.85 354.5 3356.85 363.5C3373.64 371.896 3393.25 376.225 3415.67 376.487L3417.85 376.5C3441.15 376.5 3461.22 372.301 3478.05 363.903L3478.85 363.5C3495.85 354.5 3509.02 342 3518.35 326C3527.72 310.177 3532.55 291.695 3532.84 270.554L3532.85 268.5V200ZM3463.35 268.5V200.5C3463.35 184.024 3459.02 172.797 3451.49 165.539L3451.4 165.45C3444.08 158.132 3433.26 154 3417.85 154C3403.31 154 3392.61 157.85 3384.94 164.852L3384.21 165.539C3376.68 172.797 3372.35 184.024 3372.35 200.5V268.5C3372.35 284.552 3376.64 295.861 3384.26 303.508C3391.97 310.914 3402.87 315 3417.85 315V322L3416.33 321.986C3400.72 321.714 3388.39 317.219 3379.35 308.5C3370.31 299.458 3365.65 286.663 3365.37 270.113L3365.35 268.5V200.5C3365.35 183.109 3369.87 169.917 3378.92 160.925L3379.35 160.5C3388.68 151.5 3401.52 147 3417.85 147L3419.4 147.013C3435.32 147.285 3447.63 151.781 3456.35 160.5C3465.68 169.5 3470.35 182.833 3470.35 200.5V268.5L3470.34 270.113C3470.06 286.663 3465.39 299.458 3456.35 308.5L3455.93 308.919C3446.95 317.64 3434.26 322 3417.85 322V315C3433.26 315 3444.08 310.868 3451.4 303.55L3452.11 302.822C3459.31 295.19 3463.35 284.078 3463.35 268.5ZM3539.85 268.5C3539.85 291.535 3534.78 311.96 3524.4 329.526L3524.4 329.527C3514.38 346.699 3500.23 360.1 3482.13 369.687L3482.08 369.712L3482.03 369.736C3463.84 379.011 3442.36 383.5 3417.85 383.5C3393.65 383.5 3372.2 379.003 3353.72 369.761L3353.65 369.725L3353.58 369.687C3335.49 360.111 3321.2 346.738 3310.86 329.62L3310.82 329.547L3310.77 329.473C3300.74 311.915 3295.85 291.51 3295.85 268.5V200.5C3295.85 177.494 3300.74 157.229 3310.8 139.973L3310.82 139.954L3310.83 139.935C3321.17 122.453 3335.5 109.03 3353.67 99.7637C3372.17 90.1708 3393.63 85.5 3417.85 85.5C3442.37 85.5 3463.86 90.159 3482.06 99.7803C3500.22 109.045 3514.38 122.472 3524.39 139.967C3534.78 157.204 3539.85 177.301 3539.85 200V268.5Z" fill="white"/>
<path d="M3229.55 7H3167.05V84L3169.05 149.5H3167.51C3165.16 133.95 3158.85 121.283 3148.55 111.5C3135.42 98.7032 3117.78 92.2049 3095.61 92.0049L3094.55 92C3066.88 92 3044.71 101.5 3028.05 120.5L3027.27 121.396C3011.12 140.304 3003.05 165.672 3003.05 197.5V272L3003.05 273.495C3003.31 304.795 3011.64 329.797 3028.05 348.5C3044.78 367.203 3066.52 376.701 3093.27 376.993L3094.55 377C3116.86 377 3134.65 370.863 3147.92 358.589L3148.55 358C3158.85 347.954 3165.17 335.12 3167.51 319.5H3168.55V372H3229.55V7ZM3160.05 269V200C3160.05 184.23 3155.9 173.021 3148.51 165.359L3148.42 165.268L3148.33 165.173C3141.3 157.322 3131.06 153 3116.55 153C3102.43 153 3092.13 156.943 3084.79 164.151L3084.09 164.859C3076.72 172.498 3072.55 183.853 3072.55 200V269C3072.55 285.147 3076.72 296.502 3084.09 304.141L3084.79 304.849C3092.13 312.057 3102.43 316 3116.55 316V323L3115.06 322.986C3100.02 322.708 3088.15 318.191 3079.47 309.434L3079.05 309C3070.33 299.958 3065.83 287.163 3065.56 270.613L3065.55 269V200C3065.55 182.938 3069.91 169.751 3078.63 160.44L3079.05 160C3088.05 150.667 3100.55 146 3116.55 146L3118.04 146.014C3133.31 146.306 3145.15 151.135 3153.55 160.5C3162.55 169.833 3167.05 183 3167.05 200V269L3167.03 270.583C3166.76 286.83 3162.27 299.635 3153.55 309C3144.88 318.333 3132.55 323 3116.55 323V316C3131.13 316 3141.4 311.796 3148.42 304.237L3148.42 304.23L3149.12 303.467C3156.16 295.479 3160.05 284.263 3160.05 269ZM3236.55 379H3161.55V353.564C3159.16 356.915 3156.45 360.066 3153.43 363.012L3153.4 363.044L3153.37 363.075C3138.45 377.25 3118.57 384 3094.55 384C3065.38 384 3041.26 373.768 3022.83 353.168L3022.81 353.142L3022.78 353.116C3004.72 332.528 2996.05 305.232 2996.05 272V197.5C2996.05 163.956 3004.71 136.485 3022.78 115.884L3023.64 114.923C3041.67 94.898 3065.54 85 3094.55 85C3118.58 85 3138.46 91.9274 3153.37 106.425H3153.37C3156.18 109.099 3158.72 111.958 3160.99 114.994L3160.05 84.2139L3160.05 84.1064V0H3236.55V379Z" fill="white"/>
<path d="M2763.74 269V249.5H2933.24V200C2933.24 178.333 2928.41 159.5 2918.74 143.5C2909.41 127.167 2896.08 114.5 2878.74 105.5C2862.27 96.7813 2842.99 92.2852 2820.89 92.0127L2818.74 92C2795.41 92 2775.08 96.5 2757.74 105.5L2756.13 106.354C2739.57 115.295 2726.61 127.677 2717.24 143.5L2716.81 144.252C2707.76 160.089 2703.24 178.672 2703.24 200V269L2703.26 271.023C2703.54 291.852 2708.2 310.177 2717.24 326C2726.91 342 2740.41 354.5 2757.74 363.5C2774.53 372.219 2794.14 376.715 2816.56 376.987L2818.74 377C2847.62 377 2872.13 370.217 2892.29 356.651L2893.24 356C2913.91 341.667 2926.58 322.667 2931.24 299H2869.74C2867.41 308.333 2861.91 315.5 2853.24 320.5L2852.42 320.931C2843.86 325.31 2832.8 327.5 2819.24 327.5V320.5C2832.48 320.5 2842.53 318.289 2849.83 314.387C2856.87 310.297 2861.11 304.684 2862.95 297.302L2864.28 292H2939.76L2938.11 300.354C2933.08 325.888 2919.32 346.431 2897.23 361.752L2897.21 361.766C2875.5 376.711 2849.22 384 2818.74 384C2794.88 384 2773.69 379.467 2755.39 370.159L2754.52 369.713C2736.09 360.147 2721.61 346.773 2711.25 329.62L2711.21 329.547L2711.16 329.473C2701.14 311.93 2696.24 291.697 2696.24 269V200C2696.24 177.306 2701.14 157.213 2711.2 139.973L2711.21 139.954L2711.22 139.935C2721.57 122.441 2736.06 108.872 2754.52 99.2871L2755.39 98.8408C2773.69 89.5334 2794.88 85 2818.74 85C2842.64 85 2863.79 89.6755 2881.97 99.2871L2882.83 99.7402C2900.87 109.297 2914.92 122.721 2924.78 139.965C2935.18 157.202 2940.24 177.301 2940.24 200V256.5H2770.74V269C2770.74 287.255 2775.14 299.918 2782.81 308.171C2790.4 316.011 2802.12 320.5 2819.24 320.5V327.5L2817.54 327.485C2800.05 327.193 2786.78 322.365 2777.74 313C2768.7 303.313 2764.04 289.245 2763.76 270.799L2763.74 269ZM2865.74 199.5C2865.74 181.519 2861.48 168.952 2854.04 160.683L2854 160.641L2853.96 160.598C2846.68 152.235 2835.39 147.5 2818.74 147.5C2802.37 147.5 2790.94 152.083 2783.3 160.298L2782.94 160.692C2775.13 169.334 2770.74 182.096 2770.74 200V203.438L2865.74 202.601V199.5ZM2872.74 209.539L2763.74 210.5V200C2763.74 181.297 2768.26 166.792 2777.31 156.487L2777.74 156C2787.08 145.667 2800.74 140.5 2818.74 140.5L2819.58 140.504C2837.16 140.663 2850.38 145.828 2859.24 156C2868.24 166 2872.74 180.5 2872.74 199.5V209.539Z" fill="white"/>
<path d="M2457.07 90L2511.12 261.9L2511.14 261.988C2514.07 271.735 2516.83 281.789 2519.44 292.147C2522.02 281.851 2524.6 272.015 2527.19 262.639L2527.22 262.54L2527.25 262.442L2580.27 90H2658.59L2564.01 379H2473.37L2378.26 90H2457.07ZM2387.94 97L2478.44 372H2558.94L2648.94 97H2585.44L2533.94 264.5L2532.94 268.148C2530.6 276.716 2528.27 285.667 2525.94 295L2524.03 302.594C2522.22 309.781 2520.69 315.75 2519.44 320.5C2518.1 314.167 2515.94 305.667 2512.94 295C2510.6 285.667 2508.14 276.589 2505.55 267.766L2504.44 264L2451.94 97H2387.94Z" fill="white"/>
<path d="M2232.63 283V7H2082.13V63.5H2170.13V283L2170.14 284.65C2170.38 301.644 2174.21 316.76 2181.63 330C2189.3 343.333 2199.8 353.667 2213.13 361C2226.37 368.104 2241.65 371.767 2258.95 371.989L2260.63 372H2348.13V315.5H2265.13V308.5H2355.13V379H2260.63C2241.66 379 2224.66 375.129 2209.82 367.168L2209.79 367.151L2209.76 367.134C2195.29 359.176 2183.86 347.922 2175.56 333.489L2175.53 333.425C2167.2 318.584 2163.13 301.711 2163.13 283V70.5H2075.13V0H2239.63V283C2239.63 291.518 2241.98 297.621 2246.09 302.046C2250.51 306.151 2256.61 308.5 2265.13 308.5V315.5L2264.2 315.491C2254.63 315.32 2246.95 312.49 2241.13 307C2235.64 301.188 2232.81 293.498 2232.64 283.932L2232.63 283Z" fill="white"/>
<path d="M2033.83 200C2033.83 178.333 2028.99 159.5 2019.33 143.5C2009.99 127.167 1996.83 114.667 1979.83 106C1963.36 97.2812 1943.76 92.7852 1921.04 92.5127L1918.83 92.5C1895.49 92.5 1875.16 97 1857.83 106C1840.83 114.667 1827.49 127.167 1817.83 143.5L1817.39 144.252C1808.35 160.094 1803.83 178.844 1803.83 200.5V268.5L1803.84 270.554C1804.12 291.695 1808.79 310.177 1817.83 326C1827.49 342 1840.83 354.5 1857.83 363.5C1874.62 371.896 1894.23 376.225 1916.65 376.487L1918.83 376.5C1942.13 376.5 1962.19 372.301 1979.03 363.903L1979.83 363.5C1996.83 354.5 2009.99 342 2019.33 326C2028.69 310.177 2033.52 291.695 2033.81 270.554L2033.83 268.5V200ZM1964.33 268.5V200.5C1964.33 184.024 1960 172.797 1952.47 165.539L1952.38 165.45C1945.06 158.132 1934.24 154 1918.83 154C1904.28 154 1893.59 157.85 1885.92 164.852L1885.19 165.539C1877.66 172.797 1873.33 184.024 1873.33 200.5V268.5C1873.33 284.552 1877.62 295.861 1885.24 303.508C1892.95 310.914 1903.85 315 1918.83 315V322L1917.31 321.986C1901.7 321.714 1889.37 317.219 1880.33 308.5C1871.29 299.458 1866.62 286.663 1866.34 270.113L1866.33 268.5V200.5C1866.33 183.109 1870.85 169.917 1879.89 160.925L1880.33 160.5C1889.66 151.5 1902.49 147 1918.83 147L1920.38 147.013C1936.29 147.285 1948.61 151.781 1957.33 160.5C1966.66 169.5 1971.33 182.833 1971.33 200.5V268.5L1971.31 270.113C1971.03 286.663 1966.37 299.458 1957.33 308.5L1956.9 308.919C1947.93 317.64 1935.23 322 1918.83 322V315C1934.24 315 1945.06 310.868 1952.38 303.55L1953.09 302.822C1960.29 295.19 1964.33 284.078 1964.33 268.5ZM2040.83 268.5C2040.83 291.535 2035.76 311.96 2025.37 329.526L2025.38 329.527C2015.36 346.699 2001.21 360.1 1983.1 369.687L1983.06 369.712L1983.01 369.736C1964.81 379.011 1943.34 383.5 1918.83 383.5C1894.63 383.5 1873.18 379.003 1854.7 369.761L1854.62 369.725L1854.55 369.687C1836.47 360.111 1822.18 346.738 1811.84 329.62L1811.79 329.547L1811.75 329.473C1801.72 311.915 1796.83 291.51 1796.83 268.5V200.5C1796.83 177.494 1801.72 157.229 1811.78 139.973L1811.79 139.954L1811.8 139.935C1822.15 122.453 1836.47 109.03 1854.65 99.7637C1873.14 90.1708 1894.61 85.5 1918.83 85.5C1943.35 85.5 1964.84 90.159 1983.04 99.7803C2001.2 109.045 2015.36 122.472 2025.37 139.967C2035.76 157.204 2040.83 177.301 2040.83 200V268.5Z" fill="white"/>
<path d="M1557.66 90L1611.7 261.9L1611.73 261.988C1614.65 271.735 1617.42 281.789 1620.02 292.147C1622.61 281.851 1625.19 272.015 1627.78 262.639L1627.8 262.54L1627.83 262.442L1680.85 90H1759.18L1664.6 379H1573.96L1478.85 90H1557.66ZM1488.52 97L1579.02 372H1659.52L1749.52 97H1686.02L1634.52 264.5L1633.52 268.148C1631.19 276.716 1628.86 285.667 1626.52 295L1624.62 302.594C1622.8 309.781 1621.27 315.75 1620.02 320.5C1618.69 314.167 1616.52 305.667 1613.52 295C1611.19 285.667 1608.73 276.589 1606.14 267.766L1605.02 264L1552.52 97H1488.52Z" fill="white"/>
<path d="M1431.72 191.5C1431.72 161.641 1423.81 137.757 1407.98 119.849L1407.22 119C1391.47 101.281 1370.39 92.2837 1343.98 92.0068L1342.72 92C1319.72 92 1301.55 98.3333 1288.22 111L1287.61 111.598C1277.89 121.343 1271.92 133.978 1269.7 149.5H1268.72V97H1207.72V372H1270.22V200C1270.22 182.667 1274.55 169.333 1283.22 160C1292.22 150.667 1304.39 146 1319.72 146L1321.18 146.013C1336.14 146.285 1347.82 150.781 1356.22 159.5C1364.89 168.5 1369.22 181.333 1369.22 198V372H1431.72V191.5ZM1275.72 114.827C1277.97 111.686 1280.51 108.737 1283.33 105.986L1283.37 105.955L1283.4 105.925C1298.34 91.7319 1318.4 85 1342.72 85C1371.42 85 1394.91 94.6473 1412.4 114.296L1413.23 115.219C1430.44 134.696 1438.72 160.371 1438.72 191.5V379H1362.22V198C1362.22 183.007 1358.46 172.346 1351.83 165.051L1351.18 164.355C1344.15 157.056 1334 153 1319.72 153C1305.94 153 1295.74 157.128 1288.3 164.817C1281.24 172.449 1277.22 183.825 1277.22 200V379H1200.72V90H1275.72V114.827Z" fill="white"/>
<path d="M964.914 269V249.5H1134.41V200C1134.41 178.333 1129.58 159.5 1119.91 143.5C1110.58 127.167 1097.25 114.5 1079.91 105.5C1063.45 96.7813 1044.16 92.2852 1022.06 92.0127L1019.91 92C996.581 92 976.247 96.5 958.914 105.5L957.301 106.354C940.741 115.295 927.779 127.677 918.414 143.5L917.98 144.252C908.936 160.089 904.414 178.672 904.414 200V269L904.428 271.023C904.71 291.852 909.372 310.177 918.414 326C928.081 342 941.581 354.5 958.914 363.5C975.706 372.219 995.313 376.715 1017.74 376.987L1019.91 377C1048.79 377 1073.3 370.217 1093.46 356.651L1094.41 356C1115.08 341.667 1127.75 322.667 1132.41 299H1070.91C1068.58 308.333 1063.08 315.5 1054.41 320.5L1053.59 320.931C1045.04 325.31 1033.98 327.5 1020.41 327.5V320.5C1033.66 320.5 1043.7 318.289 1051 314.387C1058.04 310.297 1062.28 304.684 1064.12 297.302L1065.45 292H1140.93L1139.28 300.354C1134.25 325.888 1120.49 346.431 1098.4 361.752L1098.38 361.766C1076.68 376.711 1050.39 384 1019.91 384C996.054 384 974.866 379.467 956.558 370.159L955.688 369.713C937.266 360.147 922.786 346.773 912.423 329.62L912.379 329.547L912.336 329.473C902.312 311.93 897.414 291.697 897.414 269V200C897.414 177.306 902.31 157.213 912.367 139.973L912.379 139.954L912.39 139.935C922.743 122.441 937.229 108.872 955.688 99.2871L956.558 98.8408C974.866 89.5334 996.054 85 1019.91 85C1043.81 85 1064.96 89.6755 1083.14 99.2871L1084 99.7402C1102.04 109.297 1116.09 122.721 1125.96 139.965C1136.35 157.202 1141.41 177.301 1141.41 200V256.5H971.914V269C971.914 287.255 976.312 299.918 983.983 308.171C991.574 316.011 1003.29 320.5 1020.41 320.5V327.5L1018.71 327.485C1001.22 327.193 987.956 322.365 978.914 313C969.872 303.313 965.21 289.245 964.928 270.799L964.914 269ZM1066.91 199.5C1066.91 181.519 1062.65 168.952 1055.21 160.683L1055.17 160.641L1055.14 160.598C1047.85 152.235 1036.56 147.5 1019.91 147.5C1003.54 147.5 992.113 152.083 984.47 160.298L984.108 160.692C976.304 169.334 971.914 182.096 971.914 200V203.438L1066.91 202.601V199.5ZM1073.91 209.539L964.914 210.5V200C964.914 181.297 969.436 166.792 978.48 156.487L978.914 156C988.247 145.667 1001.91 140.5 1019.91 140.5L1020.75 140.504C1038.34 140.663 1051.55 145.828 1060.41 156C1069.41 166 1073.91 180.5 1073.91 199.5V209.539Z" fill="white"/>
<path d="M672.092 290L672.589 296.463C673.079 302.839 675.999 307.983 682.045 312.21C688.577 316.546 697.424 319 709.109 319V326L707.929 325.992C696.19 325.836 686.503 323.336 678.866 318.492L678.109 318C670.443 312.667 666.276 305.667 665.609 297H603.109C603.776 313 608.443 327 617.109 339C626.109 350.667 638.443 359.833 654.109 366.5C669.286 372.958 686.966 376.288 707.148 376.49L709.109 376.5H731.109L732.76 376.495C766.727 376.273 792.56 369.168 810.26 355.182L811.109 354.5C829.156 339.734 838.32 319.316 838.603 293.246L838.609 292C838.609 267 830.776 248.167 815.109 235.5C799.776 222.5 775.776 213.667 743.109 209L707.609 204C694.943 202 685.776 198.833 680.109 194.5C674.62 189.979 671.79 183.269 671.618 174.368L671.609 173.5C671.609 163.812 674.581 156.471 680.525 151.476L681.109 151C687.568 145.833 697.624 143.169 711.277 143.008L712.609 143H731.609C743.276 143 752.609 145.333 759.609 150C766.714 154.521 770.846 160.293 772.007 167.316L772.109 168H834.609C833.297 145.359 823.748 127.24 805.963 113.644L805.109 113C787.062 99.5468 763.04 92.715 733.042 92.5049L731.609 92.5V85.5C763.274 85.5 789.398 92.557 809.293 107.388L810.224 108.091C829.635 122.935 840.168 142.939 841.598 167.595L842.027 175H765.999L765.174 168.945C764.502 164.016 761.783 159.68 755.852 155.905L755.788 155.865L755.727 155.824C750.242 152.168 742.411 150 731.609 150H712.609C698.879 150 690.311 152.603 685.482 156.466L685.465 156.48L685.447 156.494C681.194 159.852 678.609 165.077 678.609 173.5C678.609 181.288 680.889 186.021 684.464 189.016C688.747 192.244 696.472 195.148 708.64 197.075L744.086 202.068L744.1 202.07L745.65 202.296C778.032 207.09 802.979 216.101 819.511 230.057L820.333 230.732C837.471 245.028 845.609 265.86 845.609 292C845.609 320.468 835.718 343.411 815.542 359.918L815.531 359.927C795.777 376.023 767.251 383.5 731.109 383.5H709.109C688.06 383.5 669.287 380.264 652.942 373.597L651.368 372.941C634.771 365.879 621.407 356.031 611.567 343.275L611.499 343.188L611.435 343.099C601.898 329.895 596.834 314.545 596.115 297.291L595.812 290H672.092ZM731.109 319V326H709.109V319H731.109ZM770.109 292.5C770.109 284.77 767.441 279.434 762.367 275.568L762.219 275.455L762.076 275.334C756.947 270.974 748.065 267.554 734.301 265.953L734.195 265.94L734.091 265.926L700.091 260.926V260.925C668.741 256.583 644.5 248.187 628.367 234.99L627.604 234.357C610.925 220.332 603.109 199.595 603.109 173.5C603.109 146.079 612.471 124.095 631.711 108.555C650.788 92.8123 678.131 85.5 712.609 85.5V92.5L711.037 92.5049C678.148 92.7254 653.172 99.8906 636.109 114L635.304 114.66C618.508 128.621 610.109 148.234 610.109 173.5L610.115 174.651C610.341 198.743 617.672 216.859 632.109 229C646.776 241.333 669.776 249.667 701.109 254L735.109 259C749.443 260.667 759.943 264.333 766.609 270C773.609 275.333 777.109 282.833 777.109 292.5L777.099 293.462C776.867 303.341 773.037 311.187 765.609 317L764.88 317.554C757.221 323.185 745.964 326 731.109 326V319C745.721 319 755.39 316.108 761.295 311.487C767.149 306.906 770.109 300.834 770.109 292.5ZM731.609 85.5V92.5H712.609V85.5H731.609Z" fill="white"/>
<path d="M365.305 269V249.5H534.805V200C534.805 178.333 529.971 159.5 520.305 143.5C510.971 127.167 497.638 114.5 480.305 105.5C463.836 96.7813 444.552 92.2852 422.452 92.0127L420.305 92C396.971 92 376.638 96.5 359.305 105.5L357.691 106.354C341.132 115.295 328.169 127.677 318.805 143.5L318.371 144.252C309.327 160.089 304.805 178.672 304.805 200V269L304.818 271.023C305.101 291.852 309.763 310.177 318.805 326C328.471 342 341.971 354.5 359.305 363.5C376.096 372.219 395.703 376.715 418.126 376.987L420.305 377C449.18 377 473.695 370.217 493.849 356.651L494.805 356C515.471 341.667 528.138 322.667 532.805 299H471.305C468.971 308.333 463.471 315.5 454.805 320.5L453.984 320.931C445.427 325.31 434.367 327.5 420.805 327.5V320.5C434.047 320.5 444.09 318.289 451.389 314.387C458.435 310.297 462.668 304.684 464.514 297.302L465.839 292H541.319L539.673 300.354C534.638 325.888 520.884 346.431 498.794 361.752L498.774 361.766C477.067 376.711 450.783 384 420.305 384C396.444 384 375.257 379.467 356.948 370.159L356.079 369.713C337.657 360.147 323.177 346.773 312.813 329.62L312.77 329.547L312.727 329.473C302.702 311.93 297.805 291.697 297.805 269V200C297.805 177.306 302.701 157.213 312.758 139.973L312.77 139.954L312.78 139.935C323.134 122.441 337.619 108.872 356.079 99.2871L356.948 98.8408C375.257 89.5334 396.444 85 420.305 85C444.202 85 465.353 89.6755 483.53 99.2871L484.394 99.7402C502.435 109.297 516.478 122.721 526.347 139.965C536.738 157.202 541.805 177.301 541.805 200V256.5H372.305V269C372.305 287.255 376.702 299.918 384.374 308.171C391.965 316.011 403.682 320.5 420.805 320.5V327.5L419.1 327.485C401.611 327.193 388.346 322.365 379.305 313C370.263 303.313 365.601 289.245 365.318 270.799L365.305 269ZM467.305 199.5C467.305 181.519 463.044 168.952 455.602 160.683L455.563 160.641L455.526 160.598C448.242 152.235 436.955 147.5 420.305 147.5C403.929 147.5 392.504 152.083 384.86 160.298L384.499 160.692C376.694 169.334 372.305 182.096 372.305 200V203.438L467.305 202.601V199.5ZM474.305 209.539L365.305 210.5V200C365.305 181.297 369.827 166.792 378.871 156.487L379.305 156C388.638 145.667 402.305 140.5 420.305 140.5L421.146 140.504C438.726 140.663 451.945 145.828 460.805 156C469.805 166 474.305 180.5 474.305 199.5V209.539Z" fill="white"/>
<path d="M237.5 257.5V121C237.5 98.0311 232.655 78.1307 222.965 61.2988L222.5 60.5C212.5 43.5 198.333 30.3333 180 21C162.562 11.9583 141.997 7.29622 118.303 7.01367L116 7V0C141.527 0 163.996 4.82849 183.175 14.7617H183.176C202.645 24.6732 217.826 38.7497 228.533 56.9512L229.033 57.8086C239.436 75.8792 244.5 97.0291 244.5 121V257.5C244.5 281.542 239.264 302.951 228.563 321.498L228.549 321.523L228.533 321.549C217.84 339.728 202.687 353.951 183.265 364.192L183.243 364.203L183.223 364.214C164.034 374.164 141.548 379 116 379H0.5V0H116V7H7.5V372H116L118.303 371.986C141.615 371.708 161.899 367.191 179.154 358.434L180 358C198.047 348.484 212.056 335.416 222.028 318.794L222.5 318C232.188 301.208 237.183 281.757 237.485 259.647L237.5 257.5ZM168 257.5V121C168 105.212 163.207 93.5383 154.213 85.1064L154.171 85.0674L154.13 85.0273C145.036 76.2177 132.591 71.5 116 71.5H77V307.5H116V314.5H70V64.5H116C134 64.5 148.333 69.6667 159 80C169.667 90 175 103.667 175 121V257.5L174.996 258.325C174.832 275.603 169.5 289.328 159 299.5C148.333 309.5 134 314.5 116 314.5V307.5C132.627 307.5 145.088 302.925 154.169 294.434C163.194 285.669 168 273.636 168 257.5Z" fill="white"/>
</svg>
